<?xml version="1.0"?>
<svg xmlns="http://www.w3.org/2000/svg" height="512px" viewBox="0 -26 446.27823 446" width="512px">
    <g>
        <path d="m297.972656 134.96875c0-35.386719-16-69.140625-45.050781-95.039062-28.722656-25.425782-65.695313-39.5625-104.054687-39.789063-30.855469.183594-61.03125 9.101563-87.03125 25.714844-25.886719 16.574219-45.1875 39.625-54.34375 64.898437-.070313.203125-.15625.398438-.246094.589844-13.65625 27.980469-5.0625 87.847656 1.84375 135.953125 1.871094 13.035156 3.640625 25.347656 4.820312 36.023437.019532.210938.03125.417969.035156.625l.921876 128.261719 188.265624 2.410157v-50.597657l-51.15625-1.570312c-3.328124-.089844-5.964843-2.847657-5.910156-6.179688.027344-1.589843.691406-3.101562 1.84375-4.191406 1.15625-1.09375 2.699219-1.679687 4.289063-1.621094l113.96875 3.507813c7.96875.242187 15.699219-2.734375 21.449219-8.257813 5.75-5.519531 9.03125-13.125 9.105468-21.097656l.710938-70.855469c.03125-3.238281 2.621094-5.863281 5.855468-5.941406l36.648438-.859375-41.410156-89.460937c-.367188-.792969-.554688-1.652344-.554688-2.523438zm0 0"
              data-original="#000000" class="active-path" data-old_color="#000000" fill="#216583"/>
        <path d="m358.796875 261.019531c-2.347656 2.339844-2.355469 6.136719-.015625 8.484375 20.488281 20.652344 20.488281 53.964844 0 74.617188-1.566406 1.507812-2.191406 3.746094-1.640625 5.847656s2.199219 3.738281 4.300781 4.28125c2.105469.546875 4.335938-.089844 5.839844-1.660156 25.136719-25.34375 25.136719-66.210938 0-91.554688-2.339844-2.34375-6.136719-2.351562-8.484375-.015625zm0 0"
              data-original="#000000" class="active-path" data-old_color="#000000" fill="#216583"/>
        <path d="m407.632812 233.933594c-2.339843 2.34375-2.339843 6.140625 0 8.484375 35.558594 35.558593 35.542969 93.886719-.03125 130.023437-1.511718 1.523438-2.089843 3.742188-1.519531 5.8125.570313 2.070313 2.203125 3.675782 4.28125 4.214844s4.285157-.074219 5.789063-1.609375c40.179687-40.816406 40.164062-106.726563-.035156-146.925781-2.34375-2.339844-6.140626-2.339844-8.484376 0zm0 0"
              data-original="#000000" class="active-path" data-old_color="#000000" fill="#216583"/>
    </g>
</svg>
